HIERARCHY
ROOT hip
{
  OFFSET 0.00112043 5.09927 -9.65472
  CHANNELS 6 Xposition Yposition Zposition Zrotation Xrotation Yrotation
  JOINT abdomen
  {
    OFFSET 0 -1.186 -1.5018
    CHANNELS 3 Zrotation Xrotation Yrotation
    JOINT abdomen2
    {
      OFFSET 0 9.964 0.2134
      CHANNELS 3 Zrotation Xrotation Yrotation
      JOINT chest
      {
        OFFSET 0 13.134 -3.2573
        CHANNELS 3 Zrotation Xrotation Yrotation
        JOINT neck
        {
          OFFSET 0 20.686 -1.6905
          CHANNELS 3 Zrotation Xrotation Yrotation
          JOINT head
          {
            OFFSET 0 7.238 -0.1237
            CHANNELS 3 Zrotation Xrotation Yrotation
            End Site
            {
              OFFSET 0 0 0
            }
          }
        }
        JOINT lCollar
        {
          OFFSET 1.7069 20.075 5.0056
          CHANNELS 3 Zrotation Xrotation Yrotation
          JOINT lShldr
          {
            OFFSET 13.6458 -0.047 -4.849
            CHANNELS 3 Zrotation Xrotation Yrotation
            JOINT lForeArm
            {
              OFFSET 28.3255 -0.9759 2.2888
              CHANNELS 3 Zrotation Xrotation Yrotation
              JOINT lHand
              {
                OFFSET 22.1583 -0.53 10.8316
                CHANNELS 3 Zrotation Xrotation Yrotation
                JOINT lThumb1
                {
                  OFFSET 0.786 0.112 2.5817
                  CHANNELS 3 Zrotation Xrotation Yrotation
                  JOINT lThumb2
                  {
                    OFFSET 0.3601 -0.878 4.2331
                    CHANNELS 3 Zrotation Xrotation Yrotation
                    JOINT lThumb2_End
                    {
                      OFFSET 1.8127 -1.216 2.2227
                      CHANNELS 3 Zrotation Xrotation Yrotation
                      End Site
                      {
                        OFFSET 0.0181 -0.0122 0.0222
                      }
                    }
                  }
                }
                JOINT lCarpal1
                {
                  OFFSET 0.9571 1.114 1.7695
                  CHANNELS 3 Zrotation Xrotation Yrotation
                  JOINT lIndex1
                  {
                    OFFSET 4.1246 0.487 4.1451
                    CHANNELS 3 Zrotation Xrotation Yrotation
                    JOINT lIndex2
                    {
                      OFFSET 3.4052 -1.454 2.7682
                      CHANNELS 3 Zrotation Xrotation Yrotation
                      JOINT lIndex2_End
                      {
                        OFFSET 1.4531 -1.795 1.2713
                        CHANNELS 3 Zrotation Xrotation Yrotation
                        End Site
                        {
                          OFFSET 0.0145 -0.0179 0.0127
                        }
                      }
                    }
                  }
                  JOINT lMid1
                  {
                    OFFSET 5.6954 0.21 2.1184
                    CHANNELS 3 Zrotation Xrotation Yrotation
                    JOINT lMid2
                    {
                      OFFSET 3.9766 -1.54 2.3863
                      CHANNELS 3 Zrotation Xrotation Yrotation
                      JOINT lMid2_End
                      {
                        OFFSET 1.4042 -1.926 1.125
                        CHANNELS 3 Zrotation Xrotation Yrotation
                        End Site
                        {
                          OFFSET 0.014 -0.0193 0.0113
                        }
                      }
                    }
                  }
                }
                JOINT lCarpal2
                {
                  OFFSET 2.0956 0.66 -0.3894
                  CHANNELS 3 Zrotation Xrotation Yrotation
                  JOINT lRing1
                  {
                    OFFSET 5.0395 -0.09 2.4971
                    CHANNELS 3 Zrotation Xrotation Yrotation
                    JOINT lRing2
                    {
                      OFFSET 3.7921 -1.552 1.4806
                      CHANNELS 3 Zrotation Xrotation Yrotation
                      JOINT lRing2_End
                      {
                        OFFSET 1.4655 -1.808 0.9609
                        CHANNELS 3 Zrotation Xrotation Yrotation
                        End Site
                        {
                          OFFSET 0.0147 -0.0181 0.0096
                        }
                      }
                    }
                  }
                  JOINT lPinky1
                  {
                    OFFSET 4.9141 -1.269 0.3591
                    CHANNELS 3 Zrotation Xrotation Yrotation
                    JOINT lPinky2
                    {
                      OFFSET 3.1477 -1.685 0.8462
                      CHANNELS 3 Zrotation Xrotation Yrotation
                      JOINT lPinky2_End
                      {
                        OFFSET 0.8055 -1.585 0.7955
                        CHANNELS 3 Zrotation Xrotation Yrotation
                        End Site
                        {
                          OFFSET 0.0081 -0.0158 0.008
                        }
                      }
                    }
                  }
                }
              }
            }
          }
        }
        JOINT rCollar
        {
          OFFSET -1.7069 20.075 5.0056
          CHANNELS 3 Zrotation Xrotation Yrotation
          JOINT rShldr
          {
            OFFSET -13.6458 -0.047 -4.849
            CHANNELS 3 Zrotation Xrotation Yrotation
            JOINT rForeArm
            {
              OFFSET -28.3255 -0.9759 2.2888
              CHANNELS 3 Zrotation Xrotation Yrotation
              JOINT rHand
              {
                OFFSET -22.1583 -0.53 10.8316
                CHANNELS 3 Zrotation Xrotation Yrotation
                JOINT rThumb1
                {
                  OFFSET -0.786 0.112 2.5817
                  CHANNELS 3 Zrotation Xrotation Yrotation
                  JOINT rThumb2
                  {
                    OFFSET -0.3601 -0.878 4.2331
                    CHANNELS 3 Zrotation Xrotation Yrotation
                    JOINT rThumb2_End
                    {
                      OFFSET -1.8127 -1.216 2.2227
                      CHANNELS 3 Zrotation Xrotation Yrotation
                      End Site
                      {
                        OFFSET -0.0181 -0.0122 0.0222
                      }
                    }
                  }
                }
                JOINT rCarpal1
                {
                  OFFSET -0.9571 1.114 1.7695
                  CHANNELS 3 Zrotation Xrotation Yrotation
                  JOINT rIndex1
                  {
                    OFFSET -4.1246 0.487 4.1451
                    CHANNELS 3 Zrotation Xrotation Yrotation
                    JOINT rIndex2
                    {
                      OFFSET -3.4052 -1.454 2.7682
                      CHANNELS 3 Zrotation Xrotation Yrotation
                      JOINT rIndex2_End
                      {
                        OFFSET -1.4531 -1.795 1.2713
                        CHANNELS 3 Zrotation Xrotation Yrotation
                        End Site
                        {
                          OFFSET -0.0145 -0.018 0.0127
                        }
                      }
                    }
                  }
                  JOINT rMid1
                  {
                    OFFSET -5.6954 0.21 2.1184
                    CHANNELS 3 Zrotation Xrotation Yrotation
                    JOINT rMid2
                    {
                      OFFSET -3.9766 -1.54 2.3863
                      CHANNELS 3 Zrotation Xrotation Yrotation
                      JOINT rMid2_End
                      {
                        OFFSET -1.4042 -1.926 1.125
                        CHANNELS 3 Zrotation Xrotation Yrotation
                        End Site
                        {
                          OFFSET -0.014 -0.0193 0.0113
                        }
                      }
                    }
                  }
                }
                JOINT rCarpal2
                {
                  OFFSET -2.0956 0.66 -0.3894
                  CHANNELS 3 Zrotation Xrotation Yrotation
                  JOINT rRing1
                  {
                    OFFSET -5.0395 -0.09 2.4971
                    CHANNELS 3 Zrotation Xrotation Yrotation
                    JOINT rRing2
                    {
                      OFFSET -3.7921 -1.552 1.4806
                      CHANNELS 3 Zrotation Xrotation Yrotation
                      JOINT rRing2_End
                      {
                        OFFSET -1.4655 -1.808 0.9609
                        CHANNELS 3 Zrotation Xrotation Yrotation
                        End Site
                        {
                          OFFSET -0.0147 -0.0181 0.0096
                        }
                      }
                    }
                  }
                  JOINT rPinky1
                  {
                    OFFSET -4.9141 -1.269 0.3592
                    CHANNELS 3 Zrotation Xrotation Yrotation
                    JOINT rPinky2
                    {
                      OFFSET -3.1477 -1.685 0.8462
                      CHANNELS 3 Zrotation Xrotation Yrotation
                      JOINT rPinky2_End
                      {
                        OFFSET -0.8055 -1.585 0.7955
                        CHANNELS 3 Zrotation Xrotation Yrotation
                        End Site
                        {
                          OFFSET -0.0081 -0.0158 0.008
                        }
                      }
                    }
                  }
                }
              }
            }
          }
        }
      }
    }
  }
  JOINT lThigh
  {
    OFFSET 8.367 -8.2066 0.5982
    CHANNELS 3 Zrotation Xrotation Yrotation
    JOINT lShin
    {
      OFFSET 2.1923 -43.463 -0.4932
      CHANNELS 3 Zrotation Xrotation Yrotation
      JOINT lFoot
      {
        OFFSET 0.7333 -45.8593 -2.6451
        CHANNELS 3 Zrotation Xrotation Yrotation
        End Site
        {
          OFFSET 2.6618 -4.2699 12.3931
        }
      }
    }
  }
  JOINT rThigh
  {
    OFFSET -8.367 -8.2066 0.5982
    CHANNELS 3 Zrotation Xrotation Yrotation
    JOINT rShin
    {
      OFFSET -2.1923 -43.463 -0.4931
      CHANNELS 3 Zrotation Xrotation Yrotation
      JOINT rFoot
      {
        OFFSET -0.7333 -45.8593 -2.6451
        CHANNELS 3 Zrotation Xrotation Yrotation
        End Site
        {
          OFFSET -2.6618 -4.2699 12.3931
        }
      }
    }
  }
}
MOTION
Frames:	4
Frame Time:	0.0333333
-0.052877 -4.84584 6.36558 0 23.0555 -0 -0.245674 0.928272 -0.180185 -0.488521 1.85736 -0.356457 -0.488521 1.85734 -0.356457 -4.45025e-005 6.60833 -3.98738e-005 1.10374e-007 8.92421 5.33893e-008 5.69307 15.3037 5.22327 -76.2174 -1.82456 7.21442 -26.3479 7.17133 21.7526 5.99621 3.34115 -28.5755 4.30063e-006 -1.64871e-006 1.70065e-006 -1.49089e-015 -5.96354e-016 -0 4.12178e-007 1.07516e-006 1.18705e-006 2.98177e-016 -1.98785e-016 3.18055e-015 4.30063e-006 -1.64871e-006 1.70065e-006 -5.96354e-016 1.19271e-015 -6.36111e-015 4.12178e-007 1.07516e-006 1.18705e-006 4.30063e-006 -1.64871e-006 1.70065e-006 -5.96354e-016 1.19271e-015 -6.36111e-015 4.12178e-007 1.07516e-006 1.18705e-006 2.98177e-016 -1.98785e-016 3.18055e-015 4.30063e-006 -1.64871e-006 1.70065e-006 -5.96354e-016 1.19271e-015 -6.36111e-015 4.12178e-007 1.07516e-006 1.18705e-006 4.30063e-006 -1.64871e-006 1.70065e-006 -5.96354e-016 1.19271e-015 -6.36111e-015 4.12178e-007 1.07516e-006 1.18705e-006 5.31947 16.1714 -9.13611 72.7976 -1.70811 -9.43694 11.2933 4.68377 -21.3934 0.903045 5.37221 25.2953 9.18786e-007 -2.21572e-006 -2.16978e-006 1.19271e-015 1.59028e-015 6.36111e-015 9.18786e-007 -2.21572e-006 -2.16977e-006 -3.97569e-016 3.97569e-016 -0 9.18786e-007 -2.21572e-006 -2.16978e-006 1.19271e-015 1.59028e-015 6.36111e-015 9.18786e-007 -2.21572e-006 -2.16977e-006 9.18786e-007 -2.21572e-006 -2.16978e-006 1.19271e-015 1.59028e-015 6.36111e-015 9.18786e-007 -2.21572e-006 -2.16977e-006 -3.97569e-016 3.97569e-016 -0 9.18786e-007 -2.21572e-006 -2.16978e-006 1.19271e-015 1.59028e-015 6.36111e-015 9.18786e-007 -2.21572e-006 -2.16977e-006 9.18786e-007 -2.21572e-006 -2.16978e-006 1.19271e-015 1.59028e-015 6.36111e-015 9.18786e-007 -2.21572e-006 -2.16977e-006 -0.794529 -24.709 14.5064 40.1172 78.7832 -37.3037 -36.3459 65.6622 58.312 0.837047 -27.3692 -15.4776 -115.364 82.3372 112.013 11.7536 38.3269 -15.9324 
-0.0526077 -4.8324 6.42038 0 22.7246 -0 -0.246601 1.19806 -0.179991 -0.489596 2.39688 -0.354937 -0.489596 2.39687 -0.354937 -1.47338e-005 6.60841 -1.64728e-006 4.83583e-008 9.34991 2.73696e-008 5.5761 14.458 5.15381 -76.2172 -1.82457 7.2145 -26.1784 7.10437 21.7483 5.79802 3.21089 -28.5867 -4.15288e-007 -1.07419e-006 -1.18647e-006 -1.10348e-032 -1.98785e-016 -3.18055e-015 -6.95746e-016 -1.98785e-016 -0 5.96354e-016 5.96354e-016 3.18055e-015 -4.15288e-007 -1.07419e-006 -1.18647e-006 -7.95139e-016 -1.98785e-016 3.18055e-015 1.98785e-016 -1.98785e-016 -9.54166e-015 -4.15288e-007 -1.07419e-006 -1.18647e-006 -7.95139e-016 -1.98785e-016 3.18055e-015 1.98785e-016 -1.98785e-016 -9.54166e-015 5.96354e-016 5.96354e-016 3.18055e-015 -4.15288e-007 -1.07419e-006 -1.18647e-006 -7.95139e-016 -1.98785e-016 3.18055e-015 1.98785e-016 -1.98785e-016 -9.54166e-015 -4.15288e-007 -1.07419e-006 -1.18647e-006 -7.95139e-016 -1.98785e-016 3.18055e-015 1.98785e-016 -1.98785e-016 -9.54166e-015 5.59502 15.3071 -8.95549 72.6293 -1.68768 -9.40307 11.1655 4.66505 -21.392 1.06898 5.21565 25.3282 9.20489e-007 -2.21523e-006 -2.16811e-006 -1.98785e-015 3.97569e-016 -1.59028e-014 9.20489e-007 -2.21523e-006 -2.16811e-006 -2.20695e-032 -3.97569e-016 -3.18055e-015 9.20489e-007 -2.21523e-006 -2.16811e-006 -1.98785e-015 -1.19271e-015 -1.59028e-014 9.20489e-007 -2.21523e-006 -2.16811e-006 9.20489e-007 -2.21523e-006 -2.16811e-006 -1.98785e-015 -1.19271e-015 -1.59028e-014 9.20489e-007 -2.21523e-006 -2.16811e-006 -2.20695e-032 -3.97569e-016 -3.18055e-015 9.20489e-007 -2.21523e-006 -2.16811e-006 -1.98785e-015 -1.19271e-015 -1.59028e-014 9.20489e-007 -2.21523e-006 -2.16811e-006 9.20489e-007 -2.21523e-006 -2.16811e-006 -1.98785e-015 -1.19271e-015 -1.59028e-014 9.20489e-007 -2.21523e-006 -2.16811e-006 -0.815897 -24.2491 14.4746 40.0106 78.7631 -37.2004 -36.3393 65.6594 58.3055 0.865892 -26.9096 -15.442 -115.457 82.3285 112.104 11.7534 38.3267 -15.933 
-0.0523366 -4.81909 6.47503 0 22.3936 -0 -0.247447 1.46748 -0.179764 -0.490528 2.9357 -0.353358 -0.490529 2.93572 -0.353358 2.1819e-005 6.60758 4.06393e-006 9.56913e-008 9.77557 3.30494e-008 5.4585 13.6128 5.08281 -76.2171 -1.82456 7.21456 -26.0086 7.03804 21.744 5.59984 3.08069 -28.5982 -5.96354e-016 1.19271e-015 -6.36111e-015 -8.54472e-007 -2.37179e-006 2.14643e-006 -9.93923e-016 7.95139e-016 3.18055e-015 -5.96354e-016 7.95139e-016 -6.36111e-015 1.98785e-016 -3.97569e-016 1.59028e-014 -8.54472e-007 -2.37179e-006 2.14643e-006 -3.97569e-016 3.97569e-016 -0 1.98785e-016 -3.97569e-016 1.59028e-014 -8.54472e-007 -2.37179e-006 2.14643e-006 -3.97569e-016 3.97569e-016 -0 -5.96354e-016 7.95139e-016 -6.36111e-015 1.98785e-016 -3.97569e-016 1.59028e-014 -8.54472e-007 -2.37179e-006 2.14643e-006 -3.97569e-016 3.97569e-016 -0 1.98785e-016 -3.97569e-016 1.59028e-014 -8.54472e-007 -2.37179e-006 2.14643e-006 -3.97569e-016 3.97569e-016 -0 5.87217 14.444 -8.77139 72.461 -1.66735 -9.36915 11.0377 4.64654 -21.3907 1.23497 5.05918 25.3615 9.22043e-007 -2.21478e-006 -2.16644e-006 1.84409e-006 -4.42956e-006 -4.33288e-006 -3.97569e-016 -3.97569e-016 -1.27222e-014 1.19271e-015 3.97569e-016 3.18055e-015 9.22043e-007 -2.21478e-006 -2.16644e-006 1.84409e-006 -4.42956e-006 -4.33288e-006 -7.95139e-016 -7.95139e-016 -9.54166e-015 9.22043e-007 -2.21478e-006 -2.16644e-006 1.84409e-006 -4.42956e-006 -4.33288e-006 -7.95139e-016 -7.95139e-016 -9.54166e-015 1.19271e-015 3.97569e-016 3.18055e-015 9.22043e-007 -2.21478e-006 -2.16644e-006 1.84409e-006 -4.42956e-006 -4.33288e-006 -7.95139e-016 -7.95139e-016 -9.54166e-015 9.22043e-007 -2.21478e-006 -2.16644e-006 1.84409e-006 -4.42956e-006 -4.33288e-006 -7.95139e-016 -7.95139e-016 -9.54166e-015 -0.837629 -23.802 14.4423 39.9454 78.7526 -37.1353 -36.3326 65.6567 58.2989 0.895024 -26.4622 -15.4059 -115.631 82.3152 112.274 11.7532 38.3265 -15.9336 
-0.0520602 -4.80592 6.5295 0 22.0626 -0 -0.248228 1.73639 -0.179509 -0.491348 3.47353 -0.351729 -0.491348 3.47353 -0.351729 -4.25155e-006 6.60796 -1.89547e-006 -8.34575e-008 10.2012 -2.55747e-007 5.34026 12.7682 5.01026 -76.2169 -1.82455 7.21463 -25.8386 6.97241 21.7396 5.40167 2.95052 -28.6103 1.98785e-015 0 9.54166e-015 1.10348e-031 -9.93923e-016 6.36111e-015 1.98785e-016 1.98785e-016 6.36111e-015 1.19271e-015 -3.97569e-016 9.54166e-015 5.96354e-016 -1.19271e-015 6.36111e-015 -5.96354e-016 1.98785e-016 6.36111e-015 3.97569e-016 -1.98785e-016 9.54166e-015 5.96354e-016 -1.19271e-015 6.36111e-015 -5.96354e-016 1.98785e-016 6.36111e-015 3.97569e-016 -1.98785e-016 9.54166e-015 1.19271e-015 -3.97569e-016 9.54166e-015 5.96354e-016 -1.19271e-015 6.36111e-015 -5.96354e-016 1.98785e-016 6.36111e-015 3.97569e-016 -1.98785e-016 9.54166e-015 5.96354e-016 -1.19271e-015 6.36111e-015 -5.96354e-016 1.98785e-016 6.36111e-015 3.97569e-016 -1.98785e-016 9.54166e-015 6.15102 13.5822 -8.5838 72.2927 -1.64713 -9.33517 10.9098 4.62823 -21.3894 1.40101 4.90284 25.3953 3.97569e-016 -3.97569e-016 6.36111e-015 7.95139e-016 -7.95139e-016 6.36111e-015 3.97569e-016 -7.95139e-016 -0 -4.41391e-032 3.97569e-016 6.36111e-015 1.19271e-015 -7.95139e-016 1.59028e-014 3.97569e-016 0 -0 1.59028e-015 -3.97569e-016 -0 1.19271e-015 -7.95139e-016 1.59028e-014 3.97569e-016 0 -0 1.59028e-015 -3.97569e-016 -0 -4.41391e-032 3.97569e-016 6.36111e-015 1.19271e-015 -7.95139e-016 1.59028e-014 3.97569e-016 0 -0 1.59028e-015 -3.97569e-016 -0 1.19271e-015 -7.95139e-016 1.59028e-014 3.97569e-016 0 -0 1.59028e-015 -3.97569e-016 -0 -0.858724 -23.3497 14.4107 39.8636 78.7381 -37.0549 -36.3259 65.654 58.2923 0.923182 -26.0056 -15.3709 -115.742 82.3053 112.384 11.7529 38.3262 -15.9342 
